<svg width="24" height="24" viewBox="0 0 24 24" fill="none" xmlns="http://www.w3.org/2000/svg">
<path d="M2 13.01V15C2 20 4 22 9 22H15C20 22 22 20 22 15V9C22 4 20 2 15 2H9C4 2 2 4 2 9" stroke="black" stroke-width="1.5" stroke-linecap="round" stroke-linejoin="round"/>
<path d="M15.5698 18.5016V14.6016" stroke="black" stroke-width="1.5" stroke-miterlimit="10" stroke-linecap="round" stroke-linejoin="round"/>
<path d="M15.5698 7.45V5.5" stroke="black" stroke-width="1.5" stroke-miterlimit="10" stroke-linecap="round" stroke-linejoin="round"/>
<path d="M12.98 10.0492C12.98 8.60922 14.14 7.44922 15.58 7.44922C17.02 7.44922 18.18 8.60922 18.18 10.0492C18.18 11.4892 17.02 12.6492 15.58 12.6492" stroke="black" stroke-width="1.5" stroke-miterlimit="10" stroke-linecap="round" stroke-linejoin="round"/>
<path d="M8.43018 18.5008V16.5508" stroke="black" stroke-width="1.5" stroke-miterlimit="10" stroke-linecap="round" stroke-linejoin="round"/>
<path d="M8.43018 9.4V5.5" stroke="black" stroke-width="1.5" stroke-miterlimit="10" stroke-linecap="round" stroke-linejoin="round"/>
<path d="M8.43008 16.5516C9.86602 16.5516 11.0301 15.3875 11.0301 13.9516C11.0301 12.5156 9.86602 11.3516 8.43008 11.3516C6.99414 11.3516 5.83008 12.5156 5.83008 13.9516C5.83008 15.3875 6.99414 16.5516 8.43008 16.5516Z" stroke="black" stroke-width="1.5" stroke-miterlimit="10" stroke-linecap="round" stroke-linejoin="round"/>
</svg>
