<svg width="24" height="24" viewBox="0 0 24 24" fill="none" xmlns="http://www.w3.org/2000/svg">
<path d="M15 22.75H9C3.57 22.75 1.25 20.43 1.25 15V9C1.25 3.57 3.57 1.25 9 1.25H15C20.43 1.25 22.75 3.57 22.75 9V15C22.75 20.43 20.43 22.75 15 22.75ZM9 2.75C4.39 2.75 2.75 4.39 2.75 9V15C2.75 19.61 4.39 21.25 9 21.25H15C19.61 21.25 21.25 19.61 21.25 15V9C21.25 4.39 19.61 2.75 15 2.75H9Z" fill="black"/>
<path d="M15.5801 19.2516C15.1701 19.2516 14.8301 18.9116 14.8301 18.5016V14.6016C14.8301 14.1916 15.1701 13.8516 15.5801 13.8516C15.9901 13.8516 16.3301 14.1916 16.3301 14.6016V18.5016C16.3301 18.9116 15.9901 19.2516 15.5801 19.2516Z" fill="black"/>
<path d="M15.5801 8.2C15.1701 8.2 14.8301 7.86 14.8301 7.45V5.5C14.8301 5.09 15.1701 4.75 15.5801 4.75C15.9901 4.75 16.3301 5.09 16.3301 5.5V7.45C16.3301 7.86 15.9901 8.2 15.5801 8.2Z" fill="black"/>
<path d="M15.58 13.3992C13.73 13.3992 12.23 11.8992 12.23 10.0492C12.23 8.19922 13.73 6.69922 15.58 6.69922C17.43 6.69922 18.93 8.19922 18.93 10.0492C18.93 11.8992 17.42 13.3992 15.58 13.3992ZM15.58 8.19922C14.56 8.19922 13.73 9.02922 13.73 10.0492C13.73 11.0692 14.56 11.8992 15.58 11.8992C16.6 11.8992 17.43 11.0692 17.43 10.0492C17.43 9.02922 16.59 8.19922 15.58 8.19922Z" fill="black"/>
<path d="M8.41992 19.2508C8.00992 19.2508 7.66992 18.9108 7.66992 18.5008V16.5508C7.66992 16.1408 8.00992 15.8008 8.41992 15.8008C8.82992 15.8008 9.16992 16.1408 9.16992 16.5508V18.5008C9.16992 18.9108 8.83992 19.2508 8.41992 19.2508Z" fill="black"/>
<path d="M8.41992 10.15C8.00992 10.15 7.66992 9.81 7.66992 9.4V5.5C7.66992 5.09 8.00992 4.75 8.41992 4.75C8.82992 4.75 9.16992 5.09 9.16992 5.5V9.4C9.16992 9.81 8.83992 10.15 8.41992 10.15Z" fill="black"/>
<path d="M8.41982 17.3016C6.56982 17.3016 5.06982 15.8016 5.06982 13.9516C5.06982 12.1016 6.56982 10.6016 8.41982 10.6016C10.2698 10.6016 11.7698 12.1016 11.7698 13.9516C11.7698 15.8016 10.2698 17.3016 8.41982 17.3016ZM8.41982 12.1016C7.39982 12.1016 6.56982 12.9316 6.56982 13.9516C6.56982 14.9716 7.39982 15.8016 8.41982 15.8016C9.43982 15.8016 10.2698 14.9716 10.2698 13.9516C10.2698 12.9316 9.44982 12.1016 8.41982 12.1016Z" fill="black"/>
</svg>
