<svg width="24" height="24" viewBox="0 0 24 24" fill="none" xmlns="http://www.w3.org/2000/svg">
<path opacity="0.4" d="M19.3399 14.4884L18.3399 12.8284C18.1299 12.4584 17.9399 11.7584 17.9399 11.3484V8.81844C17.9399 5.55844 15.2899 2.89844 12.0199 2.89844C8.74994 2.89844 6.09994 5.55844 6.09994 8.81844V11.3484C6.09994 11.7584 5.90994 12.4584 5.69994 12.8184L4.68994 14.4884C4.28994 15.1584 4.19994 15.8984 4.44994 16.5784C4.68994 17.2484 5.25994 17.7684 5.99994 18.0184C7.93994 18.6784 9.97994 18.9984 12.0199 18.9984C14.0599 18.9984 16.0999 18.6784 18.0399 18.0284C18.7399 17.7984 19.2799 17.2684 19.5399 16.5784C19.7999 15.8884 19.7299 15.1284 19.3399 14.4884Z" fill="black"/>
<path d="M14.2498 3.32C13.5598 3.05 12.8098 2.9 12.0198 2.9C11.2398 2.9 10.4898 3.04 9.7998 3.32C10.2298 2.51 11.0798 2 12.0198 2C12.9698 2 13.8098 2.51 14.2498 3.32Z" fill="black"/>
<path d="M14.8302 20.01C14.4102 21.17 13.3002 22 12.0002 22C11.2102 22 10.4302 21.68 9.88018 21.11C9.56018 20.81 9.32018 20.41 9.18018 20C9.31018 20.02 9.44018 20.03 9.58018 20.05C9.81018 20.08 10.0502 20.11 10.2902 20.13C10.8602 20.18 11.4402 20.21 12.0202 20.21C12.5902 20.21 13.1602 20.18 13.7202 20.13C13.9302 20.11 14.1402 20.1 14.3402 20.07C14.5002 20.05 14.6602 20.03 14.8302 20.01Z" fill="black"/>
</svg>
