<svg width="24" height="24" viewBox="0 0 24 24" fill="none" xmlns="http://www.w3.org/2000/svg">
<path d="M22 8.69156C22 9.88156 21.81 10.9816 21.48 12.0016H2.52C2.19 10.9816 2 9.88156 2 8.69156C2 5.60156 4.49 3.10156 7.56 3.10156C9.37 3.10156 10.99 3.98156 12 5.33156C13.01 3.98156 14.63 3.10156 16.44 3.10156C19.51 3.10156 22 5.60156 22 8.69156Z" fill="black"/>
<path opacity="0.4" d="M21.48 12C19.9 17 15.03 19.99 12.62 20.81C12.28 20.93 11.72 20.93 11.38 20.81C8.97002 19.99 4.10002 17 2.52002 12H21.48Z" fill="black"/>
</svg>
